<svg xmlns="http://www.w3.org/2000/svg" xmlns:xlink="http://www.w3.org/1999/xlink" width="500" zoomAndPan="magnify" viewBox="0 0 375 374.999991" height="500" preserveAspectRatio="xMidYMid meet" version="1.0"><defs><g/><clipPath id="b1f2c0f516"><path d="M 68 180 L 244 180 L 244 300 L 68 300 Z M 68 180 " clip-rule="nonzero"/></clipPath><clipPath id="7fecd28d13"><path d="M 77.105469 180.125 L 249.003906 194.519531 L 240.179688 299.902344 L 68.28125 285.503906 Z M 77.105469 180.125 " clip-rule="nonzero"/></clipPath><clipPath id="f2acf5176e"><path d="M 42.523438 177.226562 L 248.800781 194.503906 L 239.351562 307.359375 L 33.074219 290.082031 Z M 42.523438 177.226562 " clip-rule="nonzero"/></clipPath></defs><rect x="-37.5" width="450" fill="#ffffff" y="-37.499999" height="449.999989" fill-opacity="1"/><rect x="-37.5" width="450" fill="#e6e6dd" y="-37.499999" height="449.999989" fill-opacity="1"/><g fill="#000000" fill-opacity="1"><g transform="translate(119.913535, 215.258981)"><g><path d="M 86.609375 -133.0625 L 86.609375 -106.453125 L 40 -106.453125 L 40 -80 L 83.0625 -80 L 83.0625 -53.390625 L 40 -53.390625 L 40 0 L 9.671875 0 L 9.671875 -133.0625 Z M 86.609375 -133.0625 "/></g></g></g><g fill="#000000" fill-opacity="1"><g transform="translate(203.30356, 215.258981)"><g><path d="M 28.0625 -34.515625 C 33.226562 -34.515625 37.609375 -32.710938 41.203125 -29.109375 C 44.804688 -25.503906 46.609375 -21.125 46.609375 -15.96875 C 46.609375 -10.914062 44.804688 -6.585938 41.203125 -2.984375 C 37.609375 0.617188 33.226562 2.421875 28.0625 2.421875 C 23.007812 2.421875 18.679688 0.617188 15.078125 -2.984375 C 11.472656 -6.585938 9.671875 -10.914062 9.671875 -15.96875 C 9.671875 -21.125 11.472656 -25.503906 15.078125 -29.109375 C 18.679688 -32.710938 23.007812 -34.515625 28.0625 -34.515625 Z M 28.0625 -34.515625 "/></g></g></g><g clip-path="url(#b1f2c0f516)"><g clip-path="url(#7fecd28d13)"><g clip-path="url(#f2acf5176e)"><path fill="#e6e6dd" d="M 70.480469 179.570312 C 79.921875 180.417969 80.238281 191.554688 94.285156 196.472656 C 104.046875 199.886719 131.625 189.800781 152.539062 201.332031 C 164.839844 208.113281 164.800781 219.476562 174.289062 227.449219 C 188.746094 239.589844 214.457031 230.09375 231.1875 240.730469 C 246.652344 250.566406 246.859375 272.777344 233.691406 286.089844 C 212.980469 307.03125 163.53125 301.53125 147.316406 299.726562 C 136.300781 298.5 74.953125 291.671875 48.96875 255.710938 C 29.71875 229.066406 41.335938 202.28125 52.617188 189.574219 C 55.359375 186.488281 62.335938 178.835938 70.480469 179.570312 Z M 70.480469 179.570312 " fill-opacity="1" fill-rule="nonzero"/></g></g></g><g fill="#000000" fill-opacity="1"><g transform="translate(164.42152, 226.488194)"><g><path d="M 2.234375 3.578125 C 2.734375 2.515625 3.222656 1.445312 3.703125 0.375 C 4.191406 -0.6875 4.6875 -1.753906 5.1875 -2.828125 L 5.96875 -1.78125 C 5.820312 -1.457031 5.671875 -1.117188 5.515625 -0.765625 C 5.359375 -0.410156 5.207031 -0.0546875 5.0625 0.296875 C 4.925781 0.648438 4.765625 0.988281 4.578125 1.3125 C 4.398438 1.644531 4.210938 1.953125 4.015625 2.234375 C 4.347656 2.117188 4.695312 2.023438 5.0625 1.953125 C 5.4375 1.890625 5.8125 1.835938 6.1875 1.796875 C 6.5625 1.753906 6.941406 1.707031 7.328125 1.65625 C 7.722656 1.613281 8.097656 1.570312 8.453125 1.53125 L 9.21875 2.5625 C 8.039062 2.738281 6.875 2.910156 5.71875 3.078125 C 4.5625 3.242188 3.398438 3.410156 2.234375 3.578125 Z M 2.234375 3.578125 "/></g></g></g><g fill="#000000" fill-opacity="1"><g transform="translate(170.075756, 233.531265)"><g><path d="M 6.125 -5.375 C 6.289062 -5.550781 6.484375 -5.632812 6.703125 -5.625 C 6.929688 -5.625 7.125 -5.554688 7.28125 -5.421875 C 7.414062 -5.285156 7.492188 -5.101562 7.515625 -4.875 C 7.535156 -4.65625 7.460938 -4.457031 7.296875 -4.28125 C 7.128906 -4.101562 6.929688 -4.015625 6.703125 -4.015625 C 6.472656 -4.023438 6.289062 -4.097656 6.15625 -4.234375 C 6 -4.367188 5.910156 -4.546875 5.890625 -4.765625 C 5.878906 -4.992188 5.957031 -5.195312 6.125 -5.375 Z M 1.609375 1.515625 L 0.65625 0.625 L 4.65625 -3.625 L 5.609375 -2.734375 Z M 1.609375 1.515625 "/></g></g></g><g fill="#000000" fill-opacity="1"><g transform="translate(173.192473, 236.470109)"><g><path d="M 6.828125 -1.703125 C 6.640625 -1.640625 6.453125 -1.578125 6.265625 -1.515625 C 6.078125 -1.453125 5.890625 -1.382812 5.703125 -1.3125 C 5.679688 -1.382812 5.640625 -1.503906 5.578125 -1.671875 C 5.515625 -1.835938 5.378906 -1.988281 5.171875 -2.125 C 4.984375 -2.257812 4.816406 -2.316406 4.671875 -2.296875 C 4.535156 -2.273438 4.425781 -2.1875 4.34375 -2.03125 C 4.289062 -1.914062 4.296875 -1.789062 4.359375 -1.65625 C 4.429688 -1.519531 4.519531 -1.367188 4.625 -1.203125 C 4.738281 -1.046875 4.847656 -0.867188 4.953125 -0.671875 C 5.066406 -0.484375 5.15625 -0.28125 5.21875 -0.0625 C 5.28125 0.15625 5.296875 0.382812 5.265625 0.625 C 5.234375 0.863281 5.125 1.113281 4.9375 1.375 C 4.851562 1.5 4.726562 1.628906 4.5625 1.765625 C 4.394531 1.898438 4.195312 2.003906 3.96875 2.078125 C 3.738281 2.160156 3.476562 2.1875 3.1875 2.15625 C 2.90625 2.125 2.59375 1.988281 2.25 1.75 C 1.9375 1.519531 1.671875 1.25 1.453125 0.9375 C 1.242188 0.625 1.117188 0.316406 1.078125 0.015625 C 1.273438 -0.0351562 1.472656 -0.0859375 1.671875 -0.140625 C 1.867188 -0.203125 2.066406 -0.257812 2.265625 -0.3125 C 2.367188 -0.0625 2.460938 0.132812 2.546875 0.28125 C 2.640625 0.425781 2.789062 0.566406 3 0.703125 C 3 0.710938 3.03125 0.734375 3.09375 0.765625 C 3.15625 0.796875 3.226562 0.820312 3.3125 0.84375 C 3.40625 0.875 3.5 0.875 3.59375 0.84375 C 3.695312 0.820312 3.796875 0.757812 3.890625 0.65625 C 3.992188 0.5 4.023438 0.347656 3.984375 0.203125 C 3.953125 0.0664062 3.882812 -0.0820312 3.78125 -0.25 C 3.675781 -0.414062 3.550781 -0.585938 3.40625 -0.765625 C 3.257812 -0.953125 3.140625 -1.144531 3.046875 -1.34375 C 2.960938 -1.550781 2.929688 -1.78125 2.953125 -2.03125 C 2.984375 -2.289062 3.101562 -2.566406 3.3125 -2.859375 C 3.5 -3.117188 3.703125 -3.300781 3.921875 -3.40625 C 4.148438 -3.507812 4.382812 -3.5625 4.625 -3.5625 C 4.863281 -3.570312 5.085938 -3.539062 5.296875 -3.46875 C 5.503906 -3.394531 5.679688 -3.304688 5.828125 -3.203125 C 5.910156 -3.148438 6.007812 -3.070312 6.125 -2.96875 C 6.238281 -2.863281 6.335938 -2.742188 6.421875 -2.609375 C 6.515625 -2.484375 6.597656 -2.34375 6.671875 -2.1875 C 6.753906 -2.039062 6.804688 -1.878906 6.828125 -1.703125 Z M 6.828125 -1.703125 "/></g></g></g><g fill="#000000" fill-opacity="1"><g transform="translate(178.745154, 240.176203)"><g><path d="M 4.375 -6.875 C 4.476562 -7.09375 4.640625 -7.234375 4.859375 -7.296875 C 5.078125 -7.359375 5.28125 -7.34375 5.46875 -7.25 C 5.644531 -7.15625 5.769531 -7 5.84375 -6.78125 C 5.914062 -6.570312 5.898438 -6.359375 5.796875 -6.140625 C 5.679688 -5.929688 5.515625 -5.796875 5.296875 -5.734375 C 5.085938 -5.671875 4.894531 -5.6875 4.71875 -5.78125 C 4.53125 -5.875 4.394531 -6.023438 4.3125 -6.234375 C 4.238281 -6.453125 4.257812 -6.664062 4.375 -6.875 Z M 1.96875 1 L 0.8125 0.40625 L 3.46875 -4.796875 L 4.625 -4.203125 Z M 1.96875 1 "/></g></g></g><g fill="#000000" fill-opacity="1"><g transform="translate(182.599247, 242.227866)"><g><path d="M 1.40625 -2.625 C 1.53125 -3.03125 1.722656 -3.382812 1.984375 -3.6875 C 2.253906 -3.988281 2.5625 -4.226562 2.90625 -4.40625 C 3.257812 -4.59375 3.640625 -4.703125 4.046875 -4.734375 C 4.460938 -4.773438 4.878906 -4.726562 5.296875 -4.59375 C 5.703125 -4.46875 6.066406 -4.269531 6.390625 -4 C 6.710938 -3.738281 6.960938 -3.429688 7.140625 -3.078125 C 7.328125 -2.734375 7.441406 -2.363281 7.484375 -1.96875 C 7.535156 -1.570312 7.5 -1.171875 7.375 -0.765625 C 7.25 -0.359375 7.050781 -0.00390625 6.78125 0.296875 C 6.519531 0.597656 6.210938 0.84375 5.859375 1.03125 C 5.515625 1.21875 5.128906 1.332031 4.703125 1.375 C 4.285156 1.414062 3.875 1.375 3.46875 1.25 C 3.050781 1.113281 2.6875 0.910156 2.375 0.640625 C 2.0625 0.367188 1.8125 0.0546875 1.625 -0.296875 C 1.445312 -0.648438 1.332031 -1.023438 1.28125 -1.421875 C 1.238281 -1.816406 1.28125 -2.21875 1.40625 -2.625 Z M 2.65625 -2.21875 C 2.582031 -1.988281 2.554688 -1.753906 2.578125 -1.515625 C 2.597656 -1.273438 2.660156 -1.054688 2.765625 -0.859375 C 2.867188 -0.660156 3.007812 -0.484375 3.1875 -0.328125 C 3.375 -0.171875 3.585938 -0.0546875 3.828125 0.015625 C 4.054688 0.0859375 4.285156 0.109375 4.515625 0.078125 C 4.753906 0.0546875 4.976562 0 5.1875 -0.09375 C 5.394531 -0.195312 5.578125 -0.34375 5.734375 -0.53125 C 5.890625 -0.71875 6.003906 -0.925781 6.078125 -1.15625 C 6.148438 -1.394531 6.171875 -1.628906 6.140625 -1.859375 C 6.117188 -2.085938 6.050781 -2.304688 5.9375 -2.515625 C 5.832031 -2.734375 5.6875 -2.914062 5.5 -3.0625 C 5.320312 -3.21875 5.117188 -3.332031 4.890625 -3.40625 C 4.648438 -3.476562 4.410156 -3.503906 4.171875 -3.484375 C 3.941406 -3.460938 3.722656 -3.394531 3.515625 -3.28125 C 3.316406 -3.164062 3.140625 -3.019531 2.984375 -2.84375 C 2.835938 -2.664062 2.726562 -2.457031 2.65625 -2.21875 Z M 2.65625 -2.21875 "/></g></g></g><g fill="#000000" fill-opacity="1"><g transform="translate(191.064753, 244.72726)"><g><path d="M 1.703125 -5.734375 L 2.84375 -5.65625 L 2.828125 -5.515625 C 2.828125 -5.265625 2.828125 -5.035156 2.828125 -4.828125 C 2.835938 -4.628906 2.84375 -4.398438 2.84375 -4.140625 C 3.082031 -4.628906 3.4375 -5.003906 3.90625 -5.265625 C 4.382812 -5.535156 4.90625 -5.648438 5.46875 -5.609375 C 6.082031 -5.566406 6.554688 -5.367188 6.890625 -5.015625 C 7.222656 -4.671875 7.378906 -4.238281 7.359375 -3.71875 L 7.0625 0.5 L 5.765625 0.40625 L 6.03125 -3.234375 C 6.03125 -3.503906 5.941406 -3.742188 5.765625 -3.953125 C 5.597656 -4.171875 5.320312 -4.304688 4.9375 -4.359375 C 4.664062 -4.378906 4.40625 -4.347656 4.15625 -4.265625 C 3.90625 -4.191406 3.679688 -4.078125 3.484375 -3.921875 C 3.296875 -3.773438 3.132812 -3.59375 3 -3.375 C 2.875 -3.15625 2.800781 -2.914062 2.78125 -2.65625 L 2.578125 0.1875 L 1.28125 0.09375 Z M 1.703125 -5.734375 "/></g></g></g><g fill="#000000" fill-opacity="1"><g transform="translate(200.212143, 245.223718)"><g><path d="M 1.5625 -3.234375 C 1.644531 -2.734375 1.878906 -2.335938 2.265625 -2.046875 C 2.660156 -1.765625 3.125 -1.671875 3.65625 -1.765625 C 4.1875 -1.847656 4.585938 -2.085938 4.859375 -2.484375 C 5.140625 -2.890625 5.238281 -3.34375 5.15625 -3.84375 C 5.0625 -4.363281 4.816406 -4.757812 4.421875 -5.03125 C 4.035156 -5.300781 3.578125 -5.394531 3.046875 -5.3125 C 2.515625 -5.21875 2.109375 -4.976562 1.828125 -4.59375 C 1.554688 -4.207031 1.46875 -3.753906 1.5625 -3.234375 Z M 0.265625 -3 C 0.191406 -3.40625 0.203125 -3.800781 0.296875 -4.1875 C 0.398438 -4.582031 0.566406 -4.941406 0.796875 -5.265625 C 1.023438 -5.585938 1.316406 -5.863281 1.671875 -6.09375 C 2.023438 -6.332031 2.414062 -6.488281 2.84375 -6.5625 C 3.113281 -6.601562 3.375 -6.601562 3.625 -6.5625 C 3.875 -6.519531 4.09375 -6.460938 4.28125 -6.390625 C 4.476562 -6.328125 4.632812 -6.253906 4.75 -6.171875 C 4.875 -6.097656 4.9375 -6.046875 4.9375 -6.015625 C 4.914062 -6.128906 4.90625 -6.25 4.90625 -6.375 C 4.90625 -6.507812 4.894531 -6.640625 4.875 -6.765625 L 5.9375 -6.9375 L 6.921875 -1.171875 L 5.796875 -0.984375 L 5.71875 -1.484375 L 5.6875 -1.609375 C 5.695312 -1.578125 5.660156 -1.515625 5.578125 -1.421875 C 5.492188 -1.328125 5.375 -1.222656 5.21875 -1.109375 C 5.070312 -0.992188 4.882812 -0.878906 4.65625 -0.765625 C 4.4375 -0.648438 4.175781 -0.566406 3.875 -0.515625 C 3.445312 -0.441406 3.023438 -0.453125 2.609375 -0.546875 C 2.203125 -0.640625 1.835938 -0.800781 1.515625 -1.03125 C 1.191406 -1.257812 0.914062 -1.539062 0.6875 -1.875 C 0.46875 -2.21875 0.328125 -2.59375 0.265625 -3 Z M 0.265625 -3 "/></g></g></g><g fill="#000000" fill-opacity="1"><g transform="translate(209.308256, 243.399427)"><g><path d="M 2.65625 -6.078125 C 2.070312 -5.847656 1.660156 -5.5 1.421875 -5.03125 C 1.191406 -4.570312 1.175781 -4.09375 1.375 -3.59375 L 2.40625 -0.9375 L 1.1875 -0.46875 L -0.9375 -5.90625 L 0.125 -6.3125 L 0.171875 -6.1875 C 0.285156 -5.96875 0.382812 -5.765625 0.46875 -5.578125 C 0.5625 -5.390625 0.664062 -5.1875 0.78125 -4.96875 C 0.800781 -5.25 0.863281 -5.519531 0.96875 -5.78125 C 1.082031 -6.050781 1.207031 -6.285156 1.34375 -6.484375 C 1.488281 -6.691406 1.640625 -6.863281 1.796875 -7 C 1.960938 -7.144531 2.117188 -7.25 2.265625 -7.3125 Z M 2.65625 -6.078125 "/></g></g></g><g fill="#000000" fill-opacity="1"><g transform="translate(215.126071, 240.971281)"><g><path d="M -3.28125 -7.453125 C -3.394531 -7.660156 -3.414062 -7.867188 -3.34375 -8.078125 C -3.28125 -8.296875 -3.160156 -8.457031 -2.984375 -8.5625 C -2.804688 -8.65625 -2.601562 -8.675781 -2.375 -8.625 C -2.15625 -8.570312 -1.988281 -8.441406 -1.875 -8.234375 C -1.757812 -8.023438 -1.738281 -7.8125 -1.8125 -7.59375 C -1.882812 -7.382812 -2.007812 -7.234375 -2.1875 -7.140625 C -2.363281 -7.035156 -2.5625 -7.007812 -2.78125 -7.0625 C -3 -7.113281 -3.164062 -7.242188 -3.28125 -7.453125 Z M 1.921875 -1.078125 L 0.796875 -0.4375 L -2.046875 -5.546875 L -0.921875 -6.1875 Z M 1.921875 -1.078125 "/></g></g></g><g fill="#000000" fill-opacity="1"><g transform="translate(218.952951, 238.904585)"><g><path d="M -0.046875 -5.984375 C -0.378906 -5.722656 -0.597656 -5.414062 -0.703125 -5.0625 C -0.804688 -4.71875 -0.804688 -4.378906 -0.703125 -4.046875 C -0.640625 -3.890625 -0.554688 -3.722656 -0.453125 -3.546875 C -0.179688 -3.992188 0.0820312 -4.4375 0.34375 -4.875 C 0.613281 -5.320312 0.890625 -5.765625 1.171875 -6.203125 C 0.941406 -6.242188 0.71875 -6.25 0.5 -6.21875 C 0.289062 -6.1875 0.109375 -6.109375 -0.046875 -5.984375 Z M 2.90625 -6.671875 C 2.507812 -6.015625 2.117188 -5.367188 1.734375 -4.734375 C 1.359375 -4.097656 0.972656 -3.457031 0.578125 -2.8125 C 0.835938 -2.738281 1.101562 -2.726562 1.375 -2.78125 C 1.65625 -2.84375 1.925781 -2.972656 2.1875 -3.171875 C 2.550781 -3.460938 2.75 -3.835938 2.78125 -4.296875 L 4 -4.046875 C 3.957031 -3.691406 3.851562 -3.351562 3.6875 -3.03125 C 3.519531 -2.707031 3.285156 -2.425781 2.984375 -2.1875 C 2.640625 -1.914062 2.265625 -1.722656 1.859375 -1.609375 C 1.460938 -1.492188 1.066406 -1.457031 0.671875 -1.5 C 0.273438 -1.550781 -0.0976562 -1.671875 -0.453125 -1.859375 C -0.804688 -2.046875 -1.117188 -2.304688 -1.390625 -2.640625 C -1.648438 -2.960938 -1.832031 -3.320312 -1.9375 -3.71875 C -2.039062 -4.113281 -2.066406 -4.503906 -2.015625 -4.890625 C -1.960938 -5.285156 -1.835938 -5.664062 -1.640625 -6.03125 C -1.441406 -6.394531 -1.171875 -6.710938 -0.828125 -6.984375 C -0.585938 -7.179688 -0.3125 -7.316406 0 -7.390625 C 0.3125 -7.472656 0.628906 -7.5 0.953125 -7.46875 C 1.285156 -7.4375 1.617188 -7.347656 1.953125 -7.203125 C 2.296875 -7.066406 2.613281 -6.890625 2.90625 -6.671875 Z M 2.90625 -6.671875 "/></g></g></g><g fill="#000000" fill-opacity="1"><g transform="translate(225.353461, 233.557644)"><g><path d="M -1.078125 -6.953125 C -1.023438 -6.765625 -0.976562 -6.570312 -0.9375 -6.375 C -0.90625 -6.175781 -0.859375 -5.984375 -0.796875 -5.796875 C -0.878906 -5.796875 -1 -5.765625 -1.15625 -5.703125 C -1.320312 -5.648438 -1.488281 -5.53125 -1.65625 -5.34375 C -1.800781 -5.164062 -1.867188 -5.003906 -1.859375 -4.859375 C -1.859375 -4.710938 -1.789062 -4.597656 -1.65625 -4.515625 C -1.539062 -4.453125 -1.410156 -4.445312 -1.265625 -4.5 C -1.128906 -4.550781 -0.972656 -4.625 -0.796875 -4.71875 C -0.617188 -4.8125 -0.425781 -4.90625 -0.21875 -5 C -0.0195312 -5.09375 0.1875 -5.160156 0.40625 -5.203125 C 0.625 -5.253906 0.847656 -5.253906 1.078125 -5.203125 C 1.316406 -5.148438 1.5625 -5.019531 1.8125 -4.8125 C 1.925781 -4.71875 2.039062 -4.578125 2.15625 -4.390625 C 2.28125 -4.210938 2.367188 -4.003906 2.421875 -3.765625 C 2.484375 -3.535156 2.484375 -3.273438 2.421875 -2.984375 C 2.359375 -2.703125 2.195312 -2.40625 1.9375 -2.09375 C 1.6875 -1.800781 1.394531 -1.5625 1.0625 -1.375 C 0.738281 -1.1875 0.421875 -1.082031 0.109375 -1.0625 C 0.078125 -1.269531 0.0390625 -1.472656 0 -1.671875 C -0.0390625 -1.878906 -0.078125 -2.085938 -0.109375 -2.296875 C 0.140625 -2.367188 0.34375 -2.441406 0.5 -2.515625 C 0.65625 -2.585938 0.8125 -2.722656 0.96875 -2.921875 C 0.976562 -2.921875 1.003906 -2.945312 1.046875 -3 C 1.085938 -3.0625 1.117188 -3.132812 1.140625 -3.21875 C 1.171875 -3.3125 1.179688 -3.40625 1.171875 -3.5 C 1.160156 -3.59375 1.101562 -3.691406 1 -3.796875 C 0.851562 -3.929688 0.707031 -3.984375 0.5625 -3.953125 C 0.414062 -3.929688 0.257812 -3.875 0.09375 -3.78125 C -0.0703125 -3.6875 -0.253906 -3.578125 -0.453125 -3.453125 C -0.648438 -3.328125 -0.859375 -3.226562 -1.078125 -3.15625 C -1.296875 -3.09375 -1.523438 -3.082031 -1.765625 -3.125 C -2.015625 -3.175781 -2.273438 -3.316406 -2.546875 -3.546875 C -2.785156 -3.753906 -2.945312 -3.972656 -3.03125 -4.203125 C -3.125 -4.441406 -3.160156 -4.679688 -3.140625 -4.921875 C -3.128906 -5.160156 -3.078125 -5.382812 -2.984375 -5.59375 C -2.890625 -5.800781 -2.785156 -5.972656 -2.671875 -6.109375 C -2.609375 -6.179688 -2.519531 -6.265625 -2.40625 -6.359375 C -2.289062 -6.460938 -2.164062 -6.554688 -2.03125 -6.640625 C -1.894531 -6.722656 -1.742188 -6.796875 -1.578125 -6.859375 C -1.410156 -6.921875 -1.242188 -6.953125 -1.078125 -6.953125 Z M -1.078125 -6.953125 "/></g></g></g><g fill="#000000" fill-opacity="1"><g transform="translate(229.516736, 228.365485)"><g><path d="M -0.40625 -0.875 C -0.601562 -1 -0.722656 -1.175781 -0.765625 -1.40625 C -0.804688 -1.632812 -0.769531 -1.835938 -0.65625 -2.015625 C -0.550781 -2.179688 -0.390625 -2.289062 -0.171875 -2.34375 C 0.046875 -2.394531 0.253906 -2.359375 0.453125 -2.234375 C 0.660156 -2.109375 0.78125 -1.929688 0.8125 -1.703125 C 0.851562 -1.484375 0.820312 -1.289062 0.71875 -1.125 C 0.601562 -0.945312 0.4375 -0.828125 0.21875 -0.765625 C 0.0078125 -0.710938 -0.195312 -0.75 -0.40625 -0.875 Z M -0.40625 -0.875 "/></g></g></g><g fill="#000000" fill-opacity="1"><g transform="translate(125.579979, 208.221968)"><g><path d="M 2.234375 -2.828125 C 2.210938 -2.316406 2.359375 -1.875 2.671875 -1.5 C 2.992188 -1.132812 3.425781 -0.9375 3.96875 -0.90625 C 4.5 -0.882812 4.941406 -1.035156 5.296875 -1.359375 C 5.648438 -1.691406 5.835938 -2.113281 5.859375 -2.625 C 5.890625 -3.144531 5.742188 -3.582031 5.421875 -3.9375 C 5.109375 -4.289062 4.6875 -4.476562 4.15625 -4.5 C 3.613281 -4.53125 3.164062 -4.390625 2.8125 -4.078125 C 2.457031 -3.765625 2.265625 -3.347656 2.234375 -2.828125 Z M 0.921875 -2.890625 C 0.941406 -3.304688 1.039062 -3.691406 1.21875 -4.046875 C 1.40625 -4.410156 1.644531 -4.722656 1.9375 -4.984375 C 2.238281 -5.242188 2.585938 -5.441406 2.984375 -5.578125 C 3.378906 -5.722656 3.796875 -5.78125 4.234375 -5.75 C 4.503906 -5.738281 4.753906 -5.6875 4.984375 -5.59375 C 5.222656 -5.5 5.425781 -5.398438 5.59375 -5.296875 C 5.757812 -5.191406 5.890625 -5.09375 5.984375 -5 C 6.085938 -4.90625 6.140625 -4.84375 6.140625 -4.8125 C 6.117188 -4.894531 6.09375 -4.976562 6.0625 -5.0625 C 6.039062 -5.144531 6.023438 -5.226562 6.015625 -5.3125 L 6.34375 -11.375 L 7.640625 -11.3125 L 7 0.375 L 5.859375 0.328125 L 5.890625 -0.171875 L 5.890625 -0.3125 C 5.890625 -0.28125 5.835938 -0.222656 5.734375 -0.140625 C 5.640625 -0.0664062 5.507812 0.00390625 5.34375 0.078125 C 5.175781 0.160156 4.96875 0.226562 4.71875 0.28125 C 4.476562 0.34375 4.207031 0.367188 3.90625 0.359375 C 3.46875 0.328125 3.054688 0.21875 2.671875 0.03125 C 2.296875 -0.144531 1.972656 -0.378906 1.703125 -0.671875 C 1.441406 -0.972656 1.238281 -1.3125 1.09375 -1.6875 C 0.957031 -2.070312 0.898438 -2.472656 0.921875 -2.890625 Z M 0.921875 -2.890625 "/></g></g></g><g fill="#000000" fill-opacity="1"><g transform="translate(134.20896, 208.896311)"><g><path d="M 2.28125 -7.828125 C 2.320312 -8.054688 2.441406 -8.234375 2.640625 -8.359375 C 2.835938 -8.484375 3.035156 -8.523438 3.234375 -8.484375 C 3.429688 -8.441406 3.59375 -8.328125 3.71875 -8.140625 C 3.851562 -7.953125 3.898438 -7.742188 3.859375 -7.515625 C 3.816406 -7.273438 3.695312 -7.097656 3.5 -6.984375 C 3.3125 -6.867188 3.117188 -6.832031 2.921875 -6.875 C 2.722656 -6.914062 2.554688 -7.023438 2.421875 -7.203125 C 2.285156 -7.378906 2.238281 -7.585938 2.28125 -7.828125 Z M 2.15625 0.421875 L 0.890625 0.171875 L 2 -5.5625 L 3.265625 -5.3125 Z M 2.15625 0.421875 "/></g></g></g><g fill="#000000" fill-opacity="1"><g transform="translate(137.734703, 209.435056)"><g><path d="M 2.90625 -2.125 C 2.738281 -1.644531 2.757812 -1.179688 2.96875 -0.734375 C 3.1875 -0.296875 3.550781 0.0078125 4.0625 0.1875 C 4.5625 0.351562 5.023438 0.320312 5.453125 0.09375 C 5.890625 -0.125 6.191406 -0.472656 6.359375 -0.953125 C 6.523438 -1.453125 6.5 -1.910156 6.28125 -2.328125 C 6.0625 -2.753906 5.703125 -3.050781 5.203125 -3.21875 C 4.691406 -3.394531 4.222656 -3.378906 3.796875 -3.171875 C 3.367188 -2.972656 3.070312 -2.625 2.90625 -2.125 Z M 7.484375 -3.65625 L 8.515625 -3.3125 L 6.578125 2.46875 L 6.359375 3.125 C 6.222656 3.519531 6.019531 3.859375 5.75 4.140625 C 5.476562 4.429688 5.164062 4.660156 4.8125 4.828125 C 4.46875 4.992188 4.09375 5.085938 3.6875 5.109375 C 3.28125 5.140625 2.867188 5.085938 2.453125 4.953125 C 2.015625 4.804688 1.625 4.566406 1.28125 4.234375 C 0.9375 3.898438 0.648438 3.578125 0.421875 3.265625 C 0.609375 3.148438 0.796875 3.03125 0.984375 2.90625 C 1.179688 2.78125 1.375 2.660156 1.5625 2.546875 C 1.707031 2.753906 1.890625 2.96875 2.109375 3.1875 C 2.335938 3.40625 2.59375 3.5625 2.875 3.65625 C 3.125 3.738281 3.367188 3.769531 3.609375 3.75 C 3.859375 3.738281 4.082031 3.679688 4.28125 3.578125 C 4.488281 3.484375 4.671875 3.34375 4.828125 3.15625 C 4.984375 2.976562 5.101562 2.769531 5.1875 2.53125 L 5.515625 1.53125 C 5.554688 1.476562 5.597656 1.4375 5.640625 1.40625 C 5.679688 1.375 5.710938 1.332031 5.734375 1.28125 C 5.703125 1.3125 5.625 1.347656 5.5 1.390625 C 5.375 1.441406 5.21875 1.476562 5.03125 1.5 C 4.84375 1.519531 4.628906 1.523438 4.390625 1.515625 C 4.160156 1.503906 3.914062 1.457031 3.65625 1.375 C 3.238281 1.226562 2.875 1.015625 2.5625 0.734375 C 2.25 0.460938 2.003906 0.148438 1.828125 -0.203125 C 1.648438 -0.554688 1.539062 -0.929688 1.5 -1.328125 C 1.46875 -1.722656 1.519531 -2.117188 1.65625 -2.515625 C 1.78125 -2.898438 1.976562 -3.242188 2.25 -3.546875 C 2.53125 -3.859375 2.847656 -4.097656 3.203125 -4.265625 C 3.554688 -4.441406 3.941406 -4.546875 4.359375 -4.578125 C 4.773438 -4.617188 5.191406 -4.566406 5.609375 -4.421875 C 5.867188 -4.335938 6.097656 -4.21875 6.296875 -4.0625 C 6.492188 -3.90625 6.660156 -3.753906 6.796875 -3.609375 C 6.929688 -3.460938 7.03125 -3.328125 7.09375 -3.203125 C 7.164062 -3.078125 7.195312 -3 7.1875 -2.96875 C 7.226562 -3.070312 7.273438 -3.179688 7.328125 -3.296875 C 7.390625 -3.410156 7.441406 -3.53125 7.484375 -3.65625 Z M 7.484375 -3.65625 "/></g></g></g><g fill="#000000" fill-opacity="1"><g transform="translate(145.732317, 212.325854)"><g><path d="M 4.265625 -6.9375 C 4.378906 -7.144531 4.546875 -7.28125 4.765625 -7.34375 C 4.984375 -7.414062 5.1875 -7.40625 5.375 -7.3125 C 5.550781 -7.226562 5.675781 -7.078125 5.75 -6.859375 C 5.832031 -6.648438 5.816406 -6.441406 5.703125 -6.234375 C 5.597656 -6.015625 5.4375 -5.875 5.21875 -5.8125 C 5.007812 -5.75 4.816406 -5.757812 4.640625 -5.84375 C 4.453125 -5.9375 4.316406 -6.085938 4.234375 -6.296875 C 4.148438 -6.503906 4.160156 -6.71875 4.265625 -6.9375 Z M 1.96875 0.96875 L 0.8125 0.40625 L 3.390625 -4.828125 L 4.546875 -4.265625 Z M 1.96875 0.96875 "/></g></g></g><g fill="#000000" fill-opacity="1"><g transform="translate(149.006851, 213.925317)"><g><path d="M 6.53125 -7.3125 L 7.625 -6.625 L 5.6875 -3.5 L 6.984375 -2.703125 L 6.3125 -1.625 L 5.015625 -2.421875 L 2.53125 1.578125 L 1.4375 0.890625 L 3.921875 -3.109375 L 2.796875 -3.796875 L 3.46875 -4.875 L 4.59375 -4.1875 Z M 6.53125 -7.3125 "/></g></g></g><g fill="#000000" fill-opacity="1"><g transform="translate(153.374039, 216.531845)"><g><path d="M 3.484375 -0.890625 C 3.148438 -0.503906 3 -0.0703125 3.03125 0.40625 C 3.070312 0.894531 3.296875 1.316406 3.703125 1.671875 C 4.109375 2.015625 4.550781 2.160156 5.03125 2.109375 C 5.519531 2.066406 5.929688 1.851562 6.265625 1.46875 C 6.597656 1.070312 6.742188 0.632812 6.703125 0.15625 C 6.660156 -0.3125 6.4375 -0.71875 6.03125 -1.0625 C 5.625 -1.414062 5.179688 -1.570312 4.703125 -1.53125 C 4.222656 -1.5 3.816406 -1.285156 3.484375 -0.890625 Z M 2.46875 -1.71875 C 2.726562 -2.03125 3.039062 -2.273438 3.40625 -2.453125 C 3.769531 -2.628906 4.148438 -2.734375 4.546875 -2.765625 C 4.941406 -2.796875 5.335938 -2.75 5.734375 -2.625 C 6.140625 -2.507812 6.507812 -2.3125 6.84375 -2.03125 C 7.050781 -1.851562 7.21875 -1.648438 7.34375 -1.421875 C 7.476562 -1.203125 7.582031 -1 7.65625 -0.8125 C 7.726562 -0.625 7.769531 -0.457031 7.78125 -0.3125 C 7.800781 -0.175781 7.800781 -0.0976562 7.78125 -0.078125 C 7.851562 -0.160156 7.9375 -0.242188 8.03125 -0.328125 C 8.132812 -0.421875 8.222656 -0.515625 8.296875 -0.609375 L 9.125 0.09375 L 5.34375 4.546875 L 4.46875 3.8125 L 4.796875 3.4375 L 4.890625 3.328125 C 4.867188 3.347656 4.796875 3.359375 4.671875 3.359375 C 4.546875 3.359375 4.390625 3.335938 4.203125 3.296875 C 4.015625 3.253906 3.800781 3.179688 3.5625 3.078125 C 3.332031 2.984375 3.101562 2.835938 2.875 2.640625 C 2.539062 2.359375 2.28125 2.03125 2.09375 1.65625 C 1.90625 1.28125 1.796875 0.894531 1.765625 0.5 C 1.734375 0.101562 1.773438 -0.285156 1.890625 -0.671875 C 2.003906 -1.054688 2.195312 -1.40625 2.46875 -1.71875 Z M 2.46875 -1.71875 "/></g></g></g><g fill="#000000" fill-opacity="1"><g transform="translate(159.635699, 222.108725)"><g><path d="M 1.46875 1.640625 L 0.609375 0.671875 L 9.296875 -7.171875 L 10.15625 -6.203125 Z M 1.46875 1.640625 "/></g></g></g></svg>